<?xml version="1.0" encoding="utf-8"?>
<!-- Generator: Adobe Illustrator 16.0.0, SVG Export Plug-In . SVG Version: 6.00 Build 0)  -->
<!DOCTYPE svg PUBLIC "-//W3C//DTD SVG 1.1//EN" "http://www.w3.org/Graphics/SVG/1.1/DTD/svg11.dtd">
<svg version="1.1" id="Layer_1" xmlns="http://www.w3.org/2000/svg" xmlns:xlink="http://www.w3.org/1999/xlink" x="0px" y="0px"
	 width="60px" height="60px" viewBox="0 0 1000 1000" enable-background="new 0 0 1000 1000" xml:space="preserve">
<g>
	<g opacity="0.4">
		<path d="M900,450c0-220.925-179.074-400-400-400S100,229.075,100,450v84.508c0,220.896,179.074,400,400,400s400-179.104,400-400
			V450z"/>
	</g>
	<g>
		<path fill="#FF4136" d="M900,450c0,220.926-179.074,400-400,400S100,670.926,100,450c0-220.925,179.074-400,400-400
			S900,229.075,900,450z"/>
		<path fill="#BF3129" d="M500,100c192.98,0,350,157.02,350,350c0,193.01-157.02,350-350,350S150,643.01,150,450
			C150,257.02,307.02,100,500,100 M500,50c-220.926,0-400,179.075-400,400c0,220.926,179.074,400,400,400s400-179.074,400-400
			C900,229.075,720.926,50,500,50L500,50z"/>
	</g>
	<g>
		<g>
			<path fill="#BF3129" d="M647.398,355.647C658.021,348.458,665,336.297,665,322.5c0-22.096-17.902-40-40-40s-40,17.904-40,40
				c0,13.797,6.979,25.958,17.602,33.147L500,507.488h250L647.398,355.647z"/>
			<path fill="#BF3129" d="M415,322.5c0-22.096-17.902-40-40-40s-40,17.904-40,40c0,13.797,6.979,25.958,17.602,33.147L250,507.488
				h250L397.398,355.647C408.021,348.458,415,336.297,415,322.5z"/>
		</g>
		<path fill="#FF8D86" d="M710,322.5c0,13.797,6.979,25.958,17.602,33.147L625,507.488L522.398,355.647
			C533.021,348.458,540,336.297,540,322.5c0-22.096-17.902-40-40-40s-40,17.904-40,40c0,13.797,6.979,25.958,17.602,33.147
			L375,507.488L272.398,355.647C283.021,348.458,290,336.297,290,322.5c0-22.096-17.902-40-40-40v40v40v254.994h500V362.5v-40v-40
			C727.902,282.5,710,300.404,710,322.5z"/>
	</g>
</g>
</svg>
