<?xml version="1.0" encoding="utf-8"?>
<!-- Generator: Adobe Illustrator 16.0.0, SVG Export Plug-In . SVG Version: 6.00 Build 0)  -->
<!DOCTYPE svg PUBLIC "-//W3C//DTD SVG 1.1//EN" "http://www.w3.org/Graphics/SVG/1.1/DTD/svg11.dtd">
<svg version="1.1" id="Layer_1" xmlns="http://www.w3.org/2000/svg" xmlns:xlink="http://www.w3.org/1999/xlink" x="0px" y="0px"
	 width="60px" height="60px" viewBox="0 0 1000 1000" enable-background="new 0 0 1000 1000" xml:space="preserve">
<g>
	<g opacity="0.4">
		<path d="M900,463.514c0-220.918-179.082-400-400-400s-400,179.082-400,400v57.48c0,220.918,179.082,400,400,400
			s400-179.082,400-400V463.514z"/>
	</g>
	<g>
		<path fill="#FFFFFF" d="M900,463.514c0,220.918-179.082,400-400,400s-400-179.082-400-400s179.082-400,400-400
			S900,242.596,900,463.514z"/>
	</g>
	<path fill="#CCCCCC" d="M475.698,788.611c-0.098-13.896,11.099-25.098,24.902-25.098l0,0c13.799,0,25,11.094,25.098,24.893l0,0
		c0,13.809-11.201,25.107-25,25.107l0,0C486.899,813.514,475.698,802.312,475.698,788.611z M325.698,767.107
		c-11.997-6.895-16.099-22.197-9.199-34.199l0,0c6.899-11.895,22.1-16.094,34.102-9.199l0,0
		c11.997,6.904,16.099,22.197,9.199,34.199l0,0c-4.6,7.998-13.003,12.5-21.699,12.5l0,0
		C333.896,770.408,329.6,769.314,325.698,767.107z M641.396,757.312c-6.899-12.002-2.896-27.305,9.004-34.199l0,0
		c11.997-7.002,27.3-2.9,34.199,9.102l0,0c6.899,11.895,2.9,27.197-8.999,34.199l0,0c-4.004,2.197-8.301,3.301-12.603,3.301l0,0
		C654.399,769.715,646.001,765.311,641.396,757.312z M197.3,639.412c-6.899-11.904-2.9-27.305,8.999-34.199l0,0
		c12.002-6.904,27.3-2.9,34.302,8.994l0,0c6.899,11.904,2.9,27.305-9.102,34.199l0,0c-3.901,2.305-8.301,3.408-12.5,3.408l0,0
		C210.298,651.814,201.997,647.312,197.3,639.412z M769.199,647.312c-11.899-6.904-16.001-22.197-9.102-34.199l0,0
		c6.899-11.904,22.202-16.006,34.102-9.102l0,0c12.002,6.895,16.099,22.1,9.199,34.102l0,0c-4.6,7.998-12.998,12.5-21.699,12.5l0,0
		C777.5,650.613,773.198,649.607,769.199,647.312z M150,464.607c0-13.799,11.099-25,24.897-25.098l0,0
		c13.804,0,25.103,11.104,25.103,24.902l0,0c0,13.799-11.104,25.098-24.902,25.098l0,0C161.299,489.607,150,478.406,150,464.607z
		 M800,463.211c0-13.799,11.098-25,25-25l0,0c13.799-0.098,25,11.104,25,24.902l0,0c0,13.896-11.201,25-25,25.098l0,0
		C811.201,488.211,800,477.01,800,463.211z M205.498,323.611c-11.997-6.797-16.099-22.1-9.297-34.102l0,0
		c6.899-12.002,22.197-16.104,34.199-9.199l0,0c11.899,6.904,16.099,22.1,9.199,34.102l0,0c-4.6,8.096-13.003,12.598-21.699,12.598
		l0,0C213.701,327.01,209.399,325.906,205.498,323.611z M759.8,313.309c-6.899-11.895-2.9-27.197,9.097-34.102l0,0
		c11.904-6.992,27.201-2.9,34.102,9.102l0,0c6.899,11.904,2.9,27.197-9.102,34.102l0,0c-3.896,2.305-8.198,3.398-12.5,3.398l0,0
		C772.798,325.809,764.399,321.307,759.8,313.309z M314.8,195.213c-7.002-11.904-2.9-27.207,8.999-34.199l0,0
		c11.899-6.904,27.202-2.9,34.199,8.994l0,0c6.899,11.904,2.9,27.207-8.999,34.199l0,0c-3.901,2.305-8.301,3.408-12.603,3.408l0,0
		C327.798,207.615,319.497,203.211,314.8,195.213z M649.897,203.611c-11.899-6.904-16.001-22.197-9.097-34.199l0,0
		c6.899-11.904,22.197-16.006,34.097-9.102l0,0l0,0l0,0c12.002,6.904,16.104,22.197,9.199,34.199l0,0
		c-4.697,7.998-13.096,12.402-21.699,12.402l0,0C658.101,206.912,653.799,205.906,649.897,203.611z M499.297,163.514
		c-0.2,0-0.4,0-0.596,0l0,0c-13.804,0.098-25-11.104-25.103-24.902l0,0c0-13.799,11.099-25,24.902-25.098l0,0
		c0.298,0,0.498,0,0.796,0l0,0c0.2,0,0.503,0,0.703,0l0,0l0,0l0,0c13.799,0,25,11.201,25,25l0,0c0,13.799-11.201,25-25,25l0,0
		C499.8,163.514,499.6,163.514,499.297,163.514z"/>
</g>
</svg>
